<svg width="86" height="86" viewBox="0 0 86 86" fill="none" xmlns="http://www.w3.org/2000/svg">
<path d="M3 3H15.8564L25.4987 64.8182H76.9242M25.4987 50.2727H75.6065C75.9781 50.273 76.3384 50.1276 76.6259 49.8611C76.9134 49.5947 77.1104 49.2237 77.1834 48.8114L82.9687 16.0841C83.0154 15.8202 83.0097 15.5479 82.9521 15.2867C82.8945 15.0256 82.7863 14.7823 82.6355 14.5742C82.4846 14.3661 82.2948 14.1985 82.0797 14.0835C81.8647 13.9685 81.6297 13.9089 81.3918 13.9091H19.0705M31.9269 79.3636C31.9269 81.3719 30.4879 83 28.7128 83C26.9377 83 25.4987 81.3719 25.4987 79.3636C25.4987 77.3553 26.9377 75.7273 28.7128 75.7273C30.4879 75.7273 31.9269 77.3553 31.9269 79.3636ZM76.9242 79.3636C76.9242 81.3719 75.4852 83 73.7102 83C71.9351 83 70.4961 81.3719 70.4961 79.3636C70.4961 77.3553 71.9351 75.7273 73.7102 75.7273C75.4852 75.7273 76.9242 77.3553 76.9242 79.3636Z" stroke="#F2F2F2" stroke-width="5" stroke-linecap="round" stroke-linejoin="round"/>
</svg>
