<svg width="40" height="40" viewBox="0 0 40 40" fill="none" xmlns="http://www.w3.org/2000/svg">
<path d="M24.9956 3.39425C24.7179 3.11692 24.3415 2.96115 23.9491 2.96115C23.5566 2.96115 23.1802 3.11692 22.9026 3.39425L3.39425 22.9026C3.11692 23.1802 2.96115 23.5566 2.96115 23.9491C2.96115 24.3415 3.11692 24.7179 3.39425 24.9956L5.50501 27.1043C6.53707 26.5277 7.72911 26.3037 8.90009 26.4663C10.0711 26.6288 11.157 27.1691 11.9929 28.0051C12.8289 28.841 13.3692 29.927 13.5318 31.0979C13.6943 32.2689 13.4703 33.461 12.8937 34.493L15.0045 36.6058C15.142 36.7434 15.3053 36.8525 15.485 36.927C15.6647 37.0015 15.8574 37.0398 16.0519 37.0398C16.2465 37.0398 16.4391 37.0015 16.6189 36.927C16.7986 36.8525 16.9619 36.7434 17.0994 36.6058L36.6058 17.0994C36.8831 16.8218 37.0388 16.4454 37.0388 16.0529C37.0388 15.6605 36.8831 15.2841 36.6058 15.0064L34.493 12.8917C33.461 13.4683 32.2689 13.6923 31.0979 13.5298C29.927 13.3672 28.841 12.8269 28.0051 11.991C27.1691 11.155 26.6288 10.0691 26.4663 8.89812C26.3037 7.72714 26.5277 6.5351 27.1043 5.50304L24.9956 3.39425ZM20.8096 1.30125C21.2221 0.888704 21.7119 0.561453 22.2509 0.338184C22.7899 0.114915 23.3676 0 23.951 0C24.5345 0 25.1122 0.114915 25.6512 0.338184C26.1902 0.561453 26.68 0.888704 27.0925 1.30125L29.4047 3.61539C30.4136 4.6224 30.234 6.03814 29.7245 6.89311C29.4445 7.36473 29.3295 7.91619 29.3978 8.46042C29.4661 9.00465 29.7137 9.51064 30.1015 9.89848C30.4894 10.2863 30.9954 10.5339 31.5396 10.6022C32.0838 10.6705 32.6353 10.5555 33.1069 10.2755C33.9619 9.76801 35.3776 9.58636 36.3846 10.5953L38.6988 12.9115C39.1113 13.324 39.4386 13.8138 39.6618 14.3528C39.8851 14.8918 40 15.4695 40 16.0529C40 16.6364 39.8851 17.2141 39.6618 17.7531C39.4386 18.2921 39.1113 18.7819 38.6988 19.1944L19.1944 38.6988C18.7819 39.1113 18.2921 39.4386 17.7531 39.6618C17.2141 39.8851 16.6364 40 16.0529 40C15.4695 40 14.8918 39.8851 14.3528 39.6618C13.8138 39.4386 13.324 39.1113 12.9115 38.6988L10.5973 36.3866C9.59031 35.3796 9.76801 33.9619 10.2774 33.1089C10.5575 32.6373 10.6724 32.0858 10.6042 31.5416C10.5359 30.9973 10.2883 30.4913 9.90046 30.1035C9.51261 29.7156 9.00663 29.468 8.4624 29.3998C7.91817 29.3315 7.3667 29.4465 6.89508 29.7265C6.04011 30.234 4.62438 30.4136 3.61737 29.4047L1.30125 27.0905C0.888704 26.678 0.561453 26.1882 0.338184 25.6492C0.114915 25.1102 0 24.5325 0 23.9491C0 23.3656 0.114915 22.7879 0.338184 22.2489C0.561453 21.7099 0.888704 21.2201 1.30125 20.8076L20.8096 1.30125Z" fill="#F2F2F2"/>
</svg>
