<svg width="80" height="80" viewBox="0 0 80 80" fill="none" xmlns="http://www.w3.org/2000/svg">
<path d="M78.0645 16.3944C76.8232 13.1862 75.0335 10.279 72.7954 7.83545C70.5556 5.38463 67.9148 3.437 65.0167 2.09847C62.0115 0.704978 58.7883 -0.00828799 55.5341 7.26568e-05C50.9688 7.26568e-05 46.5146 1.39556 42.6438 4.03147C41.7177 4.66202 40.838 5.35459 40.0046 6.10919C39.1712 5.35459 38.2914 4.66202 37.3654 4.03147C33.4946 1.39556 29.0404 7.26568e-05 24.475 7.26568e-05C21.1876 7.26568e-05 18.0021 0.702983 14.9925 2.09847C12.0847 3.44226 9.46405 5.37527 7.21379 7.83545C4.97276 10.2762 3.18257 13.1841 1.94467 16.3944C0.657483 19.7332 0 23.2788 0 26.9277C0 30.3699 0.629702 33.9568 1.87985 37.6057C2.92626 40.6551 4.42643 43.8182 6.34332 47.0123C9.3807 52.0671 13.5571 57.3389 18.7429 62.6831C27.3365 71.5418 35.8467 77.6613 36.2079 77.9094L38.4025 79.4806C39.3749 80.1731 40.625 80.1731 41.5974 79.4806L43.7921 77.9094C44.1532 77.6509 52.6542 71.5418 61.257 62.6831C66.4428 57.3389 70.6192 52.0671 73.6566 47.0123C75.5735 43.8182 77.0829 40.6551 78.1201 37.6057C79.3702 33.9568 79.9999 30.3699 79.9999 26.9277C80.0092 23.2788 79.3517 19.7332 78.0645 16.3944V16.3944ZM40.0046 71.3041C40.0046 71.3041 7.03784 47.7256 7.03784 26.9277C7.03784 16.3944 14.8443 7.85612 24.475 7.85612C31.2443 7.85612 37.1154 12.0736 40.0046 18.2344C42.8938 12.0736 48.7648 7.85612 55.5341 7.85612C65.1649 7.85612 72.9713 16.3944 72.9713 26.9277C72.9713 47.7256 40.0046 71.3041 40.0046 71.3041Z" fill="#F2F2F2"/>
</svg>
