<svg width="80" height="80" viewBox="0 0 80 80" fill="none" xmlns="http://www.w3.org/2000/svg">
<path d="M78.341 39.3578L44.2446 3.27497L41.9591 0.855123C41.4384 0.307403 40.7342 0 40.0002 0C39.2662 0 38.5619 0.307403 38.0412 0.855123L1.6593 39.3578C1.12572 39.9205 0.704015 40.5908 0.41909 41.3289C0.134164 42.0671 -0.00821198 42.8582 0.000365757 43.6556C0.0356623 46.9443 2.62113 49.5697 5.72723 49.5697H9.47748V79C9.47748 79.5523 9.9252 80 10.4775 80H69.5228C70.0751 80 70.5228 79.5523 70.5228 79V49.5697H74.3525C75.8614 49.5697 77.2821 48.9437 78.3498 47.8132C78.8756 47.2584 79.2921 46.5986 79.5754 45.8721C79.8586 45.1456 80.0029 44.3668 79.9999 43.5808C79.9999 41.9925 79.4087 40.4883 78.341 39.3578ZM45.3328 80H35.0586V54.2132H44.9417L45.3328 80ZM64.1695 42.8427V73.273H50.5891V51.9709C50.5891 49.9061 49.0096 48.2337 47.0595 48.2337H32.9409C30.9907 48.2337 29.4112 49.9061 29.4112 51.9709V73.273H15.8309V42.8427H7.35969L40.009 8.30153L42.0474 10.4598L72.6494 42.8427H64.1695Z" fill="#F2F2F2"/>
</svg>
