<svg width="43" height="38" viewBox="0 0 43 38" fill="none" xmlns="http://www.w3.org/2000/svg">
<path d="M27.6667 3.38176C24.9641 1.82143 21.8984 0.999989 18.7778 0.999989C15.6571 0.999989 12.5915 1.82143 9.88889 3.38176C7.18632 4.94208 4.9421 7.18631 3.38177 9.88888C1.82144 12.5914 1 15.6571 1 18.7778C1 21.8984 1.82144 24.9641 3.38177 27.6667C4.9421 30.3692 7.18632 32.6134 9.88889 34.1738C12.5914 35.7341 15.6571 36.5555 18.7778 36.5555C21.8984 36.5555 24.9641 35.7341 27.6667 34.1738" stroke="#B5EA5C" stroke-width="2"/>
<path d="M41 18.7777L41.7809 19.4024L42.2806 18.7777L41.7809 18.153L41 18.7777ZM21 17.7777C20.4477 17.7777 20 18.2254 20 18.7777C20 19.33 20.4477 19.7777 21 19.7777V17.7777ZM32.892 30.5135L41.7809 19.4024L40.2191 18.153L31.3302 29.2641L32.892 30.5135ZM41.7809 18.153L32.892 7.04188L31.3302 8.29127L40.2191 19.4024L41.7809 18.153ZM41 17.7777H21V19.7777H41V17.7777Z" fill="#B5EA5C"/>
</svg>
