<svg width="33" height="29" viewBox="0 0 33 29" fill="none" xmlns="http://www.w3.org/2000/svg">
<path d="M21 2.78629C18.9731 1.61605 16.6738 0.999962 14.3333 0.999962C11.9928 0.999962 9.69359 1.61605 7.66667 2.78629C5.63974 3.95653 3.95657 5.63971 2.78633 7.66663C1.61608 9.69355 1 11.9928 1 14.3333C1 16.6738 1.61608 18.973 2.78633 21C3.95657 23.0269 5.63974 24.7101 7.66667 25.8803C9.69359 27.0505 11.9928 27.6666 14.3333 27.6666C16.6738 27.6666 18.9731 27.0505 21 25.8803" stroke="#B5EA5C" stroke-width="2"/>
<path d="M31 14.3333L31.7809 14.958L32.2806 14.3333L31.7809 13.7086L31 14.3333ZM16 13.3333C15.4477 13.3333 15 13.781 15 14.3333C15 14.8856 15.4477 15.3333 16 15.3333V13.3333ZM25.1142 23.2913L31.7809 14.958L30.2191 13.7086L23.5525 22.0419L25.1142 23.2913ZM31.7809 13.7086L25.1142 5.37526L23.5525 6.62465L30.2191 14.958L31.7809 13.7086ZM31 13.3333L16 13.3333V15.3333L31 15.3333V13.3333Z" fill="#B5EA5C"/>
</svg>
