<svg width="41" height="37" viewBox="0 0 41 37" fill="none" xmlns="http://www.w3.org/2000/svg">
<path d="M36.8838 22.8662L33.5 19.4825V15C33.4961 11.9023 32.3438 8.91606 30.2658 6.61873C28.1878 4.32139 25.3318 2.87617 22.25 2.5625V0H19.75V2.5625C16.6682 2.87617 13.8122 4.32139 11.7342 6.61873C9.65622 8.91606 8.50388 11.9023 8.5 15V19.4825L5.11625 22.8662C4.88181 23.1006 4.75007 23.4185 4.75 23.75V27.5C4.75 27.8315 4.8817 28.1495 5.11612 28.3839C5.35054 28.6183 5.66848 28.75 6 28.75H14.75V29.7212C14.7228 31.307 15.2818 32.8471 16.3197 34.0463C17.3577 35.2455 18.8017 36.0195 20.375 36.22C21.244 36.3062 22.1214 36.2095 22.9507 35.9362C23.7801 35.663 24.5431 35.2191 25.1907 34.6333C25.8382 34.0474 26.356 33.3325 26.7106 32.5346C27.0653 31.7366 27.249 30.8732 27.25 30V28.75H36C36.3315 28.75 36.6495 28.6183 36.8839 28.3839C37.1183 28.1495 37.25 27.8315 37.25 27.5V23.75C37.2499 23.4185 37.1182 23.1006 36.8838 22.8662ZM24.75 30C24.75 30.9946 24.3549 31.9484 23.6517 32.6516C22.9484 33.3549 21.9946 33.75 21 33.75C20.0054 33.75 19.0516 33.3549 18.3483 32.6516C17.6451 31.9484 17.25 30.9946 17.25 30V28.75H24.75V30ZM34.75 26.25H7.25V24.2675L10.6337 20.8837C10.8682 20.6494 10.9999 20.3315 11 20V15C11 12.3478 12.0536 9.8043 13.9289 7.92893C15.8043 6.05357 18.3478 5 21 5C23.6522 5 26.1957 6.05357 28.0711 7.92893C29.9464 9.8043 31 12.3478 31 15V20C31.0001 20.3315 31.1318 20.6494 31.3662 20.8837L34.75 24.2675V26.25Z" fill="#F2F2F2"/>
</svg>
