<svg width="80" height="80" viewBox="0 0 80 80" fill="none" xmlns="http://www.w3.org/2000/svg">
<path d="M40 0C17.92 0 0 17.92 0 40C0 62.08 17.92 80 40 80C62.08 80 80 62.08 80 40C80 17.92 62.08 0 40 0ZM20.28 65.12C22 61.52 32.48 58 40 58C47.52 58 58.04 61.52 59.72 65.12C54.28 69.44 47.44 72 40 72C32.56 72 25.72 69.44 20.28 65.12ZM65.44 59.32C59.72 52.36 45.84 50 40 50C34.16 50 20.28 52.36 14.56 59.32C10.3106 53.7754 8.00523 46.9857 8 40C8 22.36 22.36 8 40 8C57.64 8 72 22.36 72 40C72 47.28 69.52 53.96 65.44 59.32ZM40 16C32.24 16 26 22.24 26 30C26 37.76 32.24 44 40 44C47.76 44 54 37.76 54 30C54 22.24 47.76 16 40 16ZM40 36C36.68 36 34 33.32 34 30C34 26.68 36.68 24 40 24C43.32 24 46 26.68 46 30C46 33.32 43.32 36 40 36Z" fill="#F2F2F2"/>
</svg>
