<svg width="80" height="80" viewBox="0 0 80 80" fill="none" xmlns="http://www.w3.org/2000/svg">
<path d="M58.7123 51.7161C63.5536 45.1088 65.7219 36.917 64.7836 28.7795C63.8452 20.6419 59.8693 13.1588 53.6513 7.82719C47.4333 2.4956 39.4317 -0.291275 31.2475 0.0241229C23.0632 0.339521 15.2998 3.73393 9.51047 9.52826C3.72111 15.3226 0.332729 23.0895 0.0232318 31.2751C-0.286266 39.4608 2.50594 47.4614 7.84123 53.6765C13.1765 59.8916 20.6614 63.8627 28.7985 64.7954C36.9356 65.728 45.1247 63.5535 51.7275 58.7068H51.7225C51.8725 58.9068 52.0325 59.0968 52.2125 59.2819L71.4618 78.5338C72.3993 79.4721 73.6711 79.9995 74.9974 80C76.3237 80.0005 77.5959 79.474 78.534 78.5363C79.4722 77.5987 79.9995 76.3267 80 75.0002C80.0005 73.6738 79.474 72.4014 78.5365 71.4631L59.2873 52.2111C59.1085 52.0302 58.9163 51.863 58.7123 51.7111V51.7161ZM60.0022 32.4941C60.0022 36.1058 59.291 39.6822 57.909 43.019C56.527 46.3558 54.5015 49.3877 51.948 51.9415C49.3945 54.4954 46.363 56.5213 43.0267 57.9034C39.6903 59.2855 36.1145 59.9969 32.5033 59.9969C28.8921 59.9969 25.3162 59.2855 21.9799 57.9034C18.6435 56.5213 15.6121 54.4954 13.0586 51.9415C10.505 49.3877 8.47949 46.3558 7.09754 43.019C5.71558 39.6822 5.0043 36.1058 5.0043 32.4941C5.0043 25.1999 7.90151 18.2044 13.0586 13.0466C18.2156 7.88887 25.2101 4.99125 32.5033 4.99125C39.7964 4.99125 46.7909 7.88887 51.948 13.0466C57.105 18.2044 60.0022 25.1999 60.0022 32.4941V32.4941Z" fill="#F2F2F2"/>
</svg>
