<svg width="40" height="40" viewBox="0 0 40 40" fill="none" xmlns="http://www.w3.org/2000/svg">
<path d="M33.7499 20.95V20V19.0375L36.1499 16.9375C36.5924 16.5476 36.8827 16.0138 36.9696 15.4305C37.0565 14.8472 36.9344 14.252 36.6249 13.75L33.6749 8.75002C33.4557 8.37035 33.1406 8.055 32.761 7.8356C32.3814 7.6162 31.9509 7.50047 31.5124 7.50002C31.2408 7.49794 30.9705 7.54016 30.7124 7.62502L27.6749 8.65002C27.1505 8.30153 26.6035 7.98834 26.0374 7.71252L25.3999 4.56252C25.2856 3.98703 24.9726 3.47007 24.5155 3.10215C24.0585 2.73423 23.4866 2.53878 22.8999 2.55002H17.0499C16.4633 2.53878 15.8914 2.73423 15.4344 3.10215C14.9773 3.47007 14.6643 3.98703 14.5499 4.56252L13.9124 7.71252C13.3424 7.98827 12.7912 8.30145 12.2624 8.65002L9.28745 7.57502C9.02657 7.50705 8.75642 7.48172 8.48745 7.50002C8.04904 7.50047 7.61846 7.6162 7.2389 7.8356C6.85934 8.055 6.54415 8.37035 6.32495 8.75002L3.37495 13.75C3.08318 14.2513 2.97476 14.8383 3.06826 15.4107C3.16176 15.9831 3.45135 16.5052 3.88745 16.8875L6.24995 19.05V20.9625L3.88745 23.0625C3.43904 23.4475 3.14152 23.9789 3.0477 24.5625C2.95388 25.146 3.06982 25.7439 3.37495 26.25L6.32495 31.25C6.54415 31.6297 6.85934 31.945 7.2389 32.1644C7.61846 32.3838 8.04904 32.4996 8.48745 32.5C8.75914 32.5021 9.02935 32.4599 9.28745 32.375L12.3249 31.35C12.8494 31.6985 13.3964 32.0117 13.9624 32.2875L14.5999 35.4375C14.7143 36.013 15.0273 36.53 15.4844 36.8979C15.9414 37.2658 16.5133 37.4613 17.0999 37.45H22.9999C23.5866 37.4613 24.1585 37.2658 24.6155 36.8979C25.0726 36.53 25.3856 36.013 25.4999 35.4375L26.1374 32.2875C26.7075 32.0118 27.2587 31.6986 27.7874 31.35L30.8124 32.375C31.0705 32.4599 31.3408 32.5021 31.6124 32.5C32.0509 32.4996 32.4814 32.3838 32.861 32.1644C33.2406 31.945 33.5557 31.6297 33.7749 31.25L36.6249 26.25C36.9167 25.7488 37.0251 25.1617 36.9316 24.5893C36.8381 24.0169 36.5485 23.4949 36.1124 23.1125L33.7499 20.95ZM31.5124 30L27.2249 28.55C26.2213 29.4002 25.0742 30.0647 23.8374 30.5125L22.9499 35H17.0499L16.1624 30.5625C14.9355 30.102 13.7946 29.4386 12.7874 28.6L8.48745 30L5.53745 25L8.93745 22C8.70632 20.7061 8.70632 19.3814 8.93745 18.0875L5.53745 15L8.48745 10L12.7749 11.45C13.7786 10.5999 14.9257 9.93534 16.1624 9.48752L17.0499 5.00002H22.9499L23.8374 9.43752C25.0644 9.89805 26.2053 10.5614 27.2124 11.4L31.5124 10L34.4624 15L31.0624 18C31.2936 19.2939 31.2936 20.6186 31.0624 21.9125L34.4624 25L31.5124 30Z" fill="#F2F2F2"/>
<path d="M20 27.5C18.5166 27.5 17.0666 27.0601 15.8332 26.236C14.5999 25.4119 13.6386 24.2406 13.0709 22.8701C12.5032 21.4997 12.3547 19.9917 12.6441 18.5368C12.9335 17.082 13.6478 15.7456 14.6967 14.6967C15.7456 13.6478 17.082 12.9335 18.5368 12.6441C19.9917 12.3547 21.4997 12.5032 22.8701 13.0709C24.2406 13.6386 25.4119 14.5999 26.236 15.8332C27.0601 17.0666 27.5 18.5166 27.5 20C27.51 20.9877 27.3229 21.9675 26.9495 22.882C26.5762 23.7964 26.0241 24.6272 25.3257 25.3257C24.6272 26.0241 23.7964 26.5762 22.882 26.9495C21.9675 27.3229 20.9877 27.51 20 27.5V27.5ZM20 15C19.3392 14.9846 18.6821 15.1034 18.0685 15.3492C17.4549 15.5951 16.8976 15.9628 16.4302 16.4302C15.9628 16.8976 15.5951 17.4549 15.3492 18.0685C15.1034 18.6821 14.9846 19.3392 15 20C14.9846 20.6608 15.1034 21.3179 15.3492 21.9315C15.5951 22.5451 15.9628 23.1024 16.4302 23.5698C16.8976 24.0372 17.4549 24.4049 18.0685 24.6508C18.6821 24.8966 19.3392 25.0154 20 25C20.6608 25.0154 21.3179 24.8966 21.9315 24.6508C22.5451 24.4049 23.1024 24.0372 23.5698 23.5698C24.0372 23.1024 24.4049 22.5451 24.6508 21.9315C24.8966 21.3179 25.0154 20.6608 25 20C25.0154 19.3392 24.8966 18.6821 24.6508 18.0685C24.4049 17.4549 24.0372 16.8976 23.5698 16.4302C23.1024 15.9628 22.5451 15.5951 21.9315 15.3492C21.3179 15.1034 20.6608 14.9846 20 15Z" fill="#F2F2F2"/>
</svg>
