<svg width="40" height="36" viewBox="0 0 40 36" fill="none" xmlns="http://www.w3.org/2000/svg">
<path d="M25.0297 3.35406C24.7621 3.10763 24.3993 2.96921 24.0211 2.96921C23.6428 2.96921 23.2801 3.10763 23.0125 3.35406L4.21044 20.6894C3.94316 20.9361 3.79303 21.2706 3.79303 21.6193C3.79303 21.968 3.94316 22.3025 4.21044 22.5492L6.24479 24.4231C7.23948 23.9108 8.38837 23.7117 9.51695 23.8561C10.6455 24.0006 11.6921 24.4807 12.4978 25.2236C13.3035 25.9664 13.8242 26.9314 13.9809 27.9719C14.1376 29.0124 13.9217 30.0717 13.366 30.9888L15.4003 32.8662C15.5329 32.9885 15.6902 33.0855 15.8635 33.1517C16.0367 33.2179 16.2224 33.2519 16.4099 33.2519C16.5974 33.2519 16.783 33.2179 16.9563 33.1517C17.1295 33.0855 17.2869 32.9885 17.4194 32.8662L36.2195 15.5326C36.4868 15.2859 36.6369 14.9514 36.6369 14.6027C36.6369 14.254 36.4868 13.9195 36.2195 13.6728L34.1833 11.7936C33.1886 12.306 32.0397 12.5051 30.9111 12.3606C29.7825 12.2162 28.7359 11.736 27.9302 10.9932C27.1246 10.2504 26.6038 9.28541 26.4472 8.24487C26.2905 7.20432 26.5064 6.14506 27.0621 5.22796L25.0297 3.35406ZM20.9952 1.4942C21.3928 1.1276 21.8649 0.836805 22.3844 0.638405C22.9039 0.440006 23.4607 0.337891 24.023 0.337891C24.5853 0.337891 25.1421 0.440006 25.6616 0.638405C26.1811 0.836805 26.6531 1.1276 27.0507 1.4942L29.2792 3.55057C30.2516 4.44541 30.0784 5.70345 29.5874 6.46319C29.3175 6.88228 29.2067 7.37232 29.2725 7.85593C29.3383 8.33954 29.577 8.78916 29.9508 9.13381C30.3246 9.47845 30.8123 9.69847 31.3368 9.75913C31.8613 9.8198 32.3928 9.71764 32.8473 9.4688C33.6714 9.01787 35.0358 8.85644 36.0064 9.75304L38.2367 11.8112C38.6344 12.1778 38.9498 12.613 39.1649 13.0919C39.3801 13.5709 39.4909 14.0843 39.4909 14.6027C39.4909 15.1212 39.3801 15.6345 39.1649 16.1135C38.9498 16.5925 38.6344 17.0277 38.2367 17.3943L19.4385 34.7261C19.0409 35.0927 18.5689 35.3835 18.0494 35.5819C17.5299 35.7803 16.9731 35.8824 16.4108 35.8824C15.8485 35.8824 15.2917 35.7803 14.7722 35.5819C14.2527 35.3835 13.7807 35.0927 13.3831 34.7261L11.1527 32.6715C10.1822 31.7766 10.3534 30.5168 10.8444 29.7588C11.1143 29.3398 11.2251 28.8497 11.1593 28.3661C11.0935 27.8825 10.8549 27.4329 10.4811 27.0882C10.1073 26.7436 9.61963 26.5236 9.0951 26.4629C8.57058 26.4022 8.03908 26.5044 7.58453 26.7532C6.76051 27.2042 5.39604 27.3638 4.42549 26.4672L2.19323 24.4109C1.79561 24.0443 1.48021 23.6091 1.26503 23.1301C1.04984 22.6511 0.939087 22.1378 0.939087 21.6193C0.939087 21.1009 1.04984 20.5875 1.26503 20.1085C1.48021 19.6296 1.79561 19.1944 2.19323 18.8278L20.9952 1.4942Z" fill="#01400B"/>
</svg>
