<svg width="33" height="32" viewBox="0 0 33 32" fill="none" xmlns="http://www.w3.org/2000/svg">
<path d="M18.5873 24.1098C19.1312 24.6398 20.0017 24.6285 20.5317 24.0846C21.0616 23.5407 21.0503 22.6701 20.5064 22.1402L18.5873 24.1098ZM12.2344 16L11.2748 15.0152C11.0092 15.274 10.8594 15.6291 10.8594 16C10.8594 16.3709 11.0092 16.726 11.2748 16.9848L12.2344 16ZM20.5064 9.85982C21.0503 9.32986 21.0616 8.45933 20.5317 7.91544C20.0017 7.37154 19.1312 7.36023 18.5873 7.89018L20.5064 9.85982ZM16.5 0.375C7.70028 0.375 0.5 7.33997 0.5 16H3.25C3.25 8.92565 9.15129 3.125 16.5 3.125V0.375ZM0.5 16C0.5 24.66 7.70028 31.625 16.5 31.625V28.875C9.15129 28.875 3.25 23.0743 3.25 16H0.5ZM16.5 31.625C25.2997 31.625 32.5 24.66 32.5 16H29.75C29.75 23.0743 23.8487 28.875 16.5 28.875V31.625ZM32.5 16C32.5 7.33997 25.2997 0.375 16.5 0.375V3.125C23.8487 3.125 29.75 8.92565 29.75 16H32.5ZM20.5064 22.1402L13.1939 15.0152L11.2748 16.9848L18.5873 24.1098L20.5064 22.1402ZM13.1939 16.9848L20.5064 9.85982L18.5873 7.89018L11.2748 15.0152L13.1939 16.9848Z" fill="#F2F2F2"/>
</svg>
