<svg width="40" height="40" viewBox="0 0 40 40" fill="none" xmlns="http://www.w3.org/2000/svg">
<path d="M35 20.6667L36 20.6667V20.6667L35 20.6667ZM32.4547 13.1213L33.1618 13.8284L32.4547 13.1213ZM25.2929 27.0404L24.5858 27.7475L25.2929 27.0404ZM25.2929 20.9596L24.5858 20.2525L25.2929 20.9596ZM34.7071 14.2929L34 15L34.7071 14.2929ZM33 34L33 35L33 34ZM9.00001 34L9.00001 35L9.00001 34ZM5.5858 33.4142L4.87869 34.1213L5.5858 33.4142ZM5.13886 11.9021L4.18514 12.2028L5.13886 11.9021ZM7.09789 13.8612L6.79719 14.8149L7.09789 13.8612ZM33.1869 5.81311L32.4798 6.52022L33.1869 5.81311ZM5.13886 7.76455L6.09258 8.06526L5.13886 7.76455ZM7.09789 5.80552L6.79719 4.8518L7.09789 5.80552ZM9.16668 6.66667L32.3333 6.66667V4.66667L9.16668 4.66667V6.66667ZM9.00001 35L33 35L33 33L9.00001 33L9.00001 35ZM4.00001 9.83333L4.00001 30H6.00001L6.00001 9.83333H4.00001ZM33 13L9.16668 13V15L33 15L33 13ZM34 27.3333L34 32L36 32L36 27.3333L34 27.3333ZM34 16L34 20.6667L36 20.6667L36 16L34 16ZM24 22.6667V25.3333H26V22.6667H24ZM27 28.3333H35V26.3333H27V28.3333ZM34 20.6667L34 27.3333L36 27.3333L36 20.6667L34 20.6667ZM35 19.6667H27V21.6667H35V19.6667ZM32.3333 6.66667V8H34.3333V6.66667H32.3333ZM27.3333 13H25V15H27.3333V13ZM32.3333 8C32.3333 9.44248 32.3312 10.4237 32.2324 11.1586C32.1375 11.8646 31.9701 12.1916 31.7475 12.4142L33.1618 13.8284C33.8179 13.1723 34.0898 12.3529 34.2146 11.4251C34.3355 10.526 34.3333 9.38594 34.3333 8H32.3333ZM27.3333 15C28.7193 15 29.8593 15.0021 30.7584 14.8812C31.6862 14.7565 32.5057 14.4845 33.1618 13.8284L31.7475 12.4142C31.525 12.6368 31.198 12.8042 30.4919 12.8991C29.7571 12.9979 28.7758 13 27.3333 13V15ZM24 25.3333C24 25.7765 23.9979 26.2094 24.0455 26.5639C24.097 26.9471 24.2226 27.3843 24.5858 27.7475L26 26.3333C26.0703 26.4037 26.0494 26.4588 26.0277 26.2974C26.0021 26.1072 26 25.833 26 25.3333H24ZM27 26.3333C26.5003 26.3333 26.2262 26.3312 26.036 26.3056C25.8745 26.2839 25.9297 26.263 26 26.3333L24.5858 27.7475C24.949 28.1108 25.3863 28.2363 25.7695 28.2878C26.1239 28.3355 26.5569 28.3333 27 28.3333V26.3333ZM26 22.6667C26 22.167 26.0021 21.8928 26.0277 21.7026C26.0494 21.5412 26.0703 21.5963 26 21.6667L24.5858 20.2525C24.2226 20.6157 24.097 21.0529 24.0455 21.4361C23.9979 21.7906 24 22.2235 24 22.6667H26ZM27 19.6667C26.5569 19.6667 26.1239 19.6645 25.7695 19.7122C25.3863 19.7637 24.949 19.8892 24.5858 20.2525L26 21.6667C25.9297 21.737 25.8745 21.7161 26.036 21.6944C26.2262 21.6688 26.5003 21.6667 27 21.6667V19.6667ZM33 15C33.4997 15 33.7738 15.0021 33.964 15.0277C34.1254 15.0494 34.0703 15.0703 34 15L35.4142 13.5858C35.051 13.2226 34.6137 13.097 34.2305 13.0455C33.8761 12.9979 33.4431 13 33 13L33 15ZM36 16C36 15.5569 36.0021 15.1239 35.9545 14.7695C35.903 14.3863 35.7774 13.949 35.4142 13.5858L34 15C33.9297 14.9297 33.9506 14.8746 33.9723 15.036C33.9979 15.2262 34 15.5003 34 16L36 16ZM33 35C33.4431 35 33.8761 35.0021 34.2305 34.9545C34.6137 34.903 35.051 34.7774 35.4142 34.4142L34 33C34.0703 32.9297 34.1254 32.9506 33.964 32.9723C33.7738 32.9979 33.4997 33 33 33L33 35ZM34 32C34 32.4997 33.9979 32.7738 33.9723 32.964C33.9506 33.1254 33.9297 33.0703 34 33L35.4142 34.4142C35.7774 34.051 35.903 33.6137 35.9545 33.2305C36.0021 32.8761 36 32.4431 36 32L34 32ZM9.00001 33C8.02893 33 7.40122 32.9979 6.93872 32.9357C6.50498 32.8774 6.36903 32.7832 6.2929 32.7071L4.87869 34.1213C5.38835 34.631 6.0167 34.8297 6.67222 34.9179C7.29897 35.0021 8.08547 35 9.00001 35L9.00001 33ZM4.00001 30C4.00001 30.9145 3.99789 31.701 4.08215 32.3278C4.17028 32.9833 4.36903 33.6117 4.87869 34.1213L6.2929 32.7071C6.21678 32.631 6.12263 32.495 6.06432 32.0613C6.00214 31.5988 6.00001 30.9711 6.00001 30H4.00001ZM4.00001 9.83333C4.00001 10.8434 3.98834 11.5787 4.18514 12.2028L6.09258 11.6014C6.01168 11.3448 6.00001 10.9945 6.00001 9.83333H4.00001ZM9.16668 13C8.0055 13 7.65518 12.9883 7.3986 12.9074L6.79719 14.8149C7.42135 15.0117 8.15664 15 9.16668 15V13ZM4.18514 12.2028C4.57758 13.4475 5.55253 14.4224 6.79719 14.8149L7.3986 12.9074C6.77627 12.7112 6.2888 12.2237 6.09258 11.6014L4.18514 12.2028ZM32.3333 6.66667C32.4549 6.66667 32.5443 6.66673 32.6198 6.66864C32.6957 6.67055 32.7328 6.67392 32.7487 6.67606C32.764 6.67811 32.7319 6.67562 32.6776 6.65324C32.6152 6.62758 32.5438 6.58422 32.4798 6.52022L33.894 5.10601C33.604 4.81601 33.2623 4.7271 33.0152 4.69389C32.7969 4.66454 32.5408 4.66667 32.3333 4.66667V6.66667ZM34.3333 6.66667C34.3333 6.45923 34.3355 6.20306 34.3061 5.98478C34.2729 5.73774 34.184 5.396 33.894 5.10601L32.4798 6.52022C32.4158 6.45622 32.3724 6.38482 32.3468 6.32244C32.3244 6.26806 32.3219 6.236 32.3239 6.25128C32.3261 6.2672 32.3294 6.30427 32.3314 6.38025C32.3333 6.45572 32.3333 6.5451 32.3333 6.66667H34.3333ZM6.00001 9.83333C6.00001 8.67216 6.01168 8.32184 6.09258 8.06526L4.18514 7.46384C3.98834 8.08801 4.00001 8.8233 4.00001 9.83333H6.00001ZM9.16668 4.66667C8.15664 4.66667 7.42135 4.655 6.79719 4.8518L7.3986 6.75923C7.65518 6.67833 8.0055 6.66667 9.16668 6.66667V4.66667ZM6.09258 8.06526C6.2888 7.44293 6.77627 6.95545 7.3986 6.75923L6.79719 4.8518C5.55253 5.24424 4.57758 6.21919 4.18514 7.46384L6.09258 8.06526Z" fill="#F2F2F2" fill-opacity="0.94902"/>
</svg>
